<svg width="24" height="24" viewBox="0 0 24 24" fill="none" xmlns="http://www.w3.org/2000/svg">
<path d="M4.31426 19.6875C4.45056 19.8237 4.61092 19.9158 4.79533 19.9639C4.97973 20.012 5.16615 20.012 5.35457 19.9639C5.54298 19.9158 5.70534 19.8237 5.84164 19.6875L11.9993 13.5206L18.169 19.6875C18.3053 19.8237 18.4656 19.9158 18.65 19.9639C18.8344 20.012 19.0188 20.012 19.2032 19.9639C19.3876 19.9158 19.5479 19.8237 19.6842 19.6875C19.8286 19.5512 19.9228 19.389 19.9669 19.2006C20.011 19.0123 20.011 18.826 19.9669 18.6416C19.9228 18.4573 19.8286 18.297 19.6842 18.1607L13.5267 11.994L19.6842 5.83921C19.8286 5.70298 19.9228 5.5427 19.9669 5.35838C20.011 5.17405 20.011 4.98773 19.9669 4.7994C19.9228 4.61107 19.8286 4.44878 19.6842 4.31255C19.5479 4.17631 19.3876 4.08415 19.2032 4.03606C19.0188 3.98798 18.8344 3.98798 18.65 4.03606C18.4656 4.08415 18.3053 4.17631 18.169 4.31255L11.9993 10.4793L5.84164 4.31255C5.70534 4.17631 5.54298 4.08415 5.35457 4.03606C5.16615 3.98798 4.97973 3.98798 4.79533 4.03606C4.61092 4.08415 4.45056 4.17631 4.31426 4.31255C4.16994 4.44878 4.07573 4.61107 4.03164 4.7994C3.98754 4.98773 3.98954 5.17405 4.03765 5.35838C4.08576 5.5427 4.17796 5.70298 4.31426 5.83921L10.4839 11.994L4.31426 18.1607C4.17796 18.297 4.08576 18.4573 4.03765 18.6416C3.98954 18.826 3.98754 19.0123 4.03164 19.2006C4.07573 19.389 4.16994 19.5512 4.31426 19.6875Z" fill="black" fill-opacity="0.8"/>
</svg>
