<svg width="24" height="24" viewBox="0 0 24 24" fill="none" xmlns="http://www.w3.org/2000/svg">
<path d="M3.86883 10.6321C4.12067 10.6321 4.32686 10.5487 4.48741 10.3821C4.64795 10.2154 4.72823 10.0063 4.72823 9.75472V8.96227L4.53935 5.66981L7.02308 8.28302L9.93179 11.2075C10.0892 11.3711 10.2875 11.4528 10.5267 11.4528C10.7975 11.4528 11.021 11.3726 11.1973 11.2123C11.3735 11.0519 11.4617 10.8396 11.4617 10.5755C11.4617 10.4497 11.4397 10.3302 11.3956 10.217C11.3515 10.1038 11.2886 10.0063 11.2067 9.92453L8.28856 7.01887L5.67261 4.53774L8.97796 4.72642H9.7618C10.0136 4.72642 10.2245 4.64623 10.3945 4.48585C10.5645 4.32547 10.6495 4.1195 10.6495 3.86793C10.6495 3.61635 10.5661 3.4088 10.3993 3.24528C10.2324 3.08176 10.0199 3 9.7618 3H4.52046C4.04197 3 3.66894 3.13365 3.40136 3.40094C3.13379 3.66824 3 4.04088 3 4.51887V9.75472C3 10 3.08185 10.2076 3.24554 10.3774C3.40923 10.5472 3.617 10.6321 3.86883 10.6321ZM14.2287 21H19.47C19.9548 21 20.331 20.8664 20.5986 20.5991C20.8662 20.3318 21 19.9591 21 19.4811V14.2453C21 14 20.9166 13.7925 20.7497 13.6227C20.5829 13.4528 20.3735 13.3679 20.1217 13.3679C19.8762 13.3679 19.6715 13.4512 19.5078 13.6179C19.3442 13.7846 19.2623 13.9937 19.2623 14.2453V15.0377L19.4606 18.3302L16.9675 15.717L14.0682 12.7924C13.9108 12.6289 13.7093 12.5472 13.4638 12.5472C13.1994 12.5472 12.9774 12.6274 12.798 12.7877C12.6186 12.9481 12.5289 13.1604 12.5289 13.4245C12.5289 13.5503 12.5509 13.6698 12.595 13.783C12.639 13.8962 12.7051 13.9937 12.7933 14.0754L15.702 16.9812L18.3274 19.4623L15.022 19.2736H14.2287C13.9769 19.2736 13.766 19.3538 13.596 19.5141C13.426 19.6746 13.3411 19.8806 13.3411 20.1321C13.3411 20.3837 13.426 20.5912 13.596 20.7547C13.766 20.9182 13.9769 21 14.2287 21Z" fill="black" fill-opacity="0.8"/>
</svg>
