<svg width="24" height="24" viewBox="0 0 24 24" fill="none" xmlns="http://www.w3.org/2000/svg">
<path d="M4.66239 11.0892H9.78809C10.2622 11.0892 10.6285 10.9614 10.8871 10.7059C11.1457 10.4504 11.275 10.0912 11.275 9.62824V4.63226C11.275 4.39779 11.195 4.1994 11.0349 4.03708C10.8748 3.87475 10.6716 3.79359 10.4253 3.79359C10.1791 3.79359 9.97743 3.87324 9.82042 4.03256C9.66342 4.19188 9.58492 4.39178 9.58492 4.63226V5.38978L9.77886 8.53706L7.34068 6.03908L4.50539 3.24349C4.34531 3.08116 4.14828 3 3.91432 3C3.64956 3 3.43099 3.07816 3.25859 3.23447C3.0862 3.39078 3 3.59519 3 3.84769C3 3.96793 3.02155 4.08066 3.06465 4.18587C3.10775 4.29108 3.1724 4.38577 3.25859 4.46994L6.10313 7.24749L8.66137 9.61923L5.43817 9.43887H4.66239C4.41611 9.43887 4.20985 9.51553 4.04362 9.66883C3.87737 9.82213 3.79425 10.019 3.79425 10.2595C3.79425 10.5 3.87737 10.6984 4.04362 10.8547C4.20985 11.011 4.41611 11.0892 4.66239 11.0892ZM13.5192 20.2425C13.7593 20.2425 13.9595 20.1628 14.1195 20.0035C14.2796 19.8442 14.3597 19.6443 14.3597 19.4038V18.5471L14.1657 15.4088L16.6039 17.9068L19.5039 20.7565C19.6578 20.9188 19.8548 21 20.095 21C20.3535 21 20.569 20.9218 20.7414 20.7655C20.9138 20.6092 21 20.4048 21 20.1523C21 20.032 20.9784 19.9193 20.9353 19.8141C20.8923 19.7089 20.8307 19.6142 20.7506 19.5301L17.8415 16.6894L15.274 14.3177L18.5064 14.498H19.3838C19.63 14.498 19.8363 14.4228 20.0026 14.2725C20.1688 14.1222 20.2519 13.9269 20.2519 13.6864C20.2519 13.4399 20.1688 13.24 20.0026 13.0866C19.8363 12.9333 19.63 12.8567 19.3838 12.8567H14.1565C13.6824 12.8567 13.3161 12.983 13.0575 13.2355C12.7989 13.488 12.6696 13.8457 12.6696 14.3086V19.4038C12.6696 19.6443 12.7496 19.8442 12.9097 20.0035C13.0698 20.1628 13.2729 20.2425 13.5192 20.2425Z" fill="black" fill-opacity="0.8"/>
</svg>
